<?xml version="1.0" standalone="no"?>
<!DOCTYPE svg PUBLIC "-//W3C//DTD SVG 20010904//EN"
 "http://www.w3.org/TR/2001/REC-SVG-20010904/DTD/svg10.dtd">
<svg version="1.0" xmlns="http://www.w3.org/2000/svg"
 width="260.000000pt" height="430.000000pt" viewBox="0 0 260.000000 430.000000"
 preserveAspectRatio="xMidYMid meet">

<g transform="translate(0.000000,430.000000) scale(0.100000,-0.100000)"
fill="#000000" stroke="none">
<path d="M1014 4290 c-75 -11 -122 -29 -139 -53 -12 -17 -15 -57 -15 -193 l0
-172 -37 -7 c-55 -10 -120 -51 -140 -88 -34 -65 -12 -167 42 -203 l25 -16 0
-400 c0 -431 -3 -466 -55 -569 -29 -57 -136 -191 -173 -218 -42 -30 -221 -234
-280 -319 -142 -204 -216 -436 -228 -714 -21 -459 157 -848 497 -1090 283
-202 711 -280 1103 -202 413 82 741 345 887 710 127 318 125 743 -6 1059 -72
174 -164 304 -355 500 -74 77 -150 158 -167 180 -42 55 -90 154 -103 211 -7
29 -11 201 -10 448 l0 400 29 31 c16 16 34 40 40 52 18 35 13 112 -9 149 -22
35 -87 71 -144 81 l-36 6 -2 186 -3 186 -35 17 c-20 10 -67 22 -105 28 -80 11
-504 11 -581 0z m-150 -487 c11 -72 7 -233 -6 -233 -9 0 -10 -3 -2 -8 7 -4 13
-72 16 -186 5 -171 7 -181 28 -198 21 -17 51 -18 404 -18 318 0 385 2 402 15
20 13 22 28 29 197 4 120 11 185 18 190 9 6 9 8 0 8 -10 0 -13 34 -13 136 l0
136 37 -7 c84 -15 133 -63 133 -127 0 -46 -18 -84 -53 -115 -14 -12 -29 -37
-32 -56 -4 -19 -5 -207 -3 -418 l4 -384 27 -81 c35 -106 82 -171 246 -339 174
-179 257 -290 331 -440 95 -193 130 -353 130 -600 0 -363 -97 -626 -315 -853
-106 -112 -188 -172 -320 -237 -187 -92 -384 -135 -619 -135 -243 0 -435 42
-631 140 -300 149 -507 407 -590 734 -69 274 -47 630 55 875 73 178 160 298
372 519 155 161 205 229 242 331 20 53 21 81 24 484 l3 429 -41 44 c-36 39
-40 49 -40 94 0 60 32 103 95 125 58 20 62 19 69 -22z"/>
<path d="M564 2238 c-137 -139 -219 -241 -278 -346 -206 -365 -205 -882 2
-1230 189 -317 524 -505 943 -528 503 -28 926 198 1125 601 174 353 156 840
-44 1172 -72 120 -134 196 -273 336 l-126 127 -609 0 -609 0 -131 -132z m312
-157 c69 -42 83 -180 31 -295 -30 -65 -106 -150 -159 -177 -94 -48 -175 -29
-216 51 -64 124 34 354 181 420 55 25 123 25 163 1z"/>
</g>
</svg>
